<svg xmlns="http://www.w3.org/2000/svg" xml:space="preserve" viewBox="0 0 500 500">
<path d="M281.4 484.2c53.6-12.4 91.9-61.4 99.5-83.8a125 125 0 0 1-21.2 28.8l6.5-18c-31.2 46-69 62.3-111.8 68-57 1.9-89.7-27.1-108.1-43.6 3.4 4.7 6.3 9.9 9.4 14.8-7.5-4.3-13.6-10.6-19.6-16.7 21.5 30.4 50.7 44.2 86.2 52.4 10.3 5.6 21.1 9.8 32.1 13.9 9.3-4.9 18.7-9.3 27-15.8zM252.8 471l3.4 2.2 1.1-1.2a18 18 0 0 1-1.3-6.8l3.3 2.2 1.9-.7v-2l-4.4-4.8-.6-6.7h.8l10.2 9c1.8-2.1 3-4.5 4.4-6.9-5-4.6-10-9.3-14.8-14l-.8-12c6.1 5.1 12 10.7 17.8 16l-.3 12-1 3 4.9 4.4 2.5.8 1-1.8.1-11.4 5.1 5v2.6l.8 2.9h1.8V461l1.3-.8 2.8 2h2.2l.9-4.1 1.2-1.6-3.6-1.9-5.5-5.7c3.3-.8 6.8-.8 10.2-.8l.5-1-.7-6.4-12.8-.8-8.5-2.8-5.4-5.5c7-.9 14.2-1.2 21.3-1.7-2.2-7.1-3-14.7-4.2-22.1l-7.7.5-2.9.7v3.2l1-.5v9.8c-5.6.8-11.2 2-16.9 2.2L256 418v-1.7c4.2-1.2 8.5-1.2 12.8-1.6l-2-4.1c-9.6 1.6-19.3 2.5-29 3.7l-1.6 1.3v1.6l11.1.3.6.5-7.1 7.4-14.5-.4-.6-.5.3-7.9-10.3 1.6v.2c-.6 5.5-2.4 10.9-2.6 16.4l19.2-1.2c-1.4 2.9-3.8 5-6 7.4l-11.6 3.9c-2.2.5-4.3.6-6.8.6.2 2.6.1 5.2.1 7.8l11.2-.8a48.6 48.6 0 0 1-8.7 9.1l-1.4.5 2.8 2.8v2.6h1l2.4-2.6h1.5l1.6 2h1l1-4.9 4-6h.8l.8 9.2.6 2.2 4.8-2 1.7-1.6-.6-8-.6-7.9c4.7-6.6 10.6-12.1 16.2-18l.3 11.2-13.5 15.3v1.5l3.4 5.8c3.9-3.5 7.5-7.2 10.7-11.3v7.2l-3.8 5.6v2.3l1.9.8 2.6-3-.4 4.3-.4 4.4c1.5-.7 2.7-1.8 3.9-2.8zm-47.2-17.6c.2-11.3.4-22.5-.3-33.8l-4.9.7-2.4 2.4-2.5 4.9-9.6-.9-3.2-.5-5.5 5.6 1 .6 8 1.7 2.2 1.6-4.9 4.3-2.7 1.5-4.8.8v1.9h2l-.9 5.1h1.5l3.8-2v1l-2 2.5v.7l7 .4.9-4.4c3.2-2.8 6.3-5.8 9.4-8.7-.1 5-.4 10-.8 14.9 3 0 5.8-.2 8.7-.3zm103.1-7.3a170 170 0 0 1-2.2-14.3c3.3 2.5 6.6 5.3 9.7 8.1l.8 4.3h5l-.8-3.6 5.1.5.9-1.4-1.9-3.8 1.8.7v-3.3h-5.7l-8-6.8 12.7-1 1.6-1-3.2-7-.5-.4-16.2 1.6-2.5-2.5-1.8-10.3-4-.3c-.2 9.5 0 19 0 28.5l1.5 13.2 7.2-.7zm-127.3-22.5h-1.9l-13.1 2.2.3.9 5.8 4.4 1.4-.7zm157.4-.6.6-.6-9.3-10.7 3.4-.4 6.4 1.7 6.3 1.6h1.4v-2l3.2-1.1v-1l-2-2.8 1.3-.8v-2.7l-6 1-6.1-.2-2.8-1 7-4.1h-3.3l-17.7 3-7.2 4.5-.4 1.3 8.7 1 2.2 1.1v2.5l5.4 11h1.4l7.5-1.3zm-231.4-4.7 7-68.2L119 401c1.1 10.6 5.7 12.6 15.6 13.3l24-2.7v-8.3l1.6-14.6L162 374l1-7.4.9-7.4 1-7.7 1-7.7.2-.6.2-.7v61.6L164 411h1.8l25.2-3.3.4-.4-1.4-2.8-1.5-2.8-.4-46.4 16.3-3.3-.7 46.8-3.8 7.7h1.4l28-3.8.5-.5-2.6-6 .3-120.4 3.5-7.3c-12.5 0-73.3 7.6-79.4 8.4 3.2 3 3.5 4 4.6 8-5.4 31.4-8.5 63.2-13.5 94.6-5.3-30.3-9.1-61-13.5-91.4a26 26 0 0 1 2.7-8.7c-11.6.5-23.2 2-34.8 3l-.8.9 1.4.9 2.3 4.4L89.3 387l-11.9-90c-.6-6.1 1.2-11.8 2.8-17.7l-54 6.2s18.5 20.7 28 30.8c3 20.2 7.6 53.3 13 94.3 2 7.4 2.9 9.7 15 10l25.2-2.2zm81-126.7c1.5-6.6 4-10.5 8.7-11.7 5.7 1.3 6.2 7.5 7 12.3v39.6h-.9l-14.7 2.6h-.4zm106.1 102.2.5-.8-1.8-6.2V371l-3.6 2.6c-9.1 1.4-19.3 4.2-28.4 4.5v-12l14-2.2 5.3.4-.1-9.3-.1-9.2-.6-.7-2.2.2c-5.5.6-11 1.6-16.3 2.4v-11.2c8-2 16.1-3.3 24.3-4.7 4.4.4 5 1.3 8.3 4-.3-6.7-.6-13.4-1.4-20l-4 .7-17.1.8-10.9-2.3c-8.7.4-17.3 1.8-26 3l4 5.7.7 67.6-1.7 7a15 15 0 0 1-2.8 3.8c1.1 0 2.2-.5 3.2-.8 19-2.1 37.7-5.9 56.7-7.4zm64-8.6.7-.7-1.7-4.9.3-18.5-3.5 3.3c-9.3 2.5-21.2 3.8-27.5 4.3l-.2-6.2-.2-6.2 3-.7 14-2 2.6.8-.2-9.9-.3-9.8-.4-.4-16.7 2.7h-1.6v-5.6l.2-5.5 1-1 16.5-3.4c4-.6 6.3-.9 10.2.1l3.1 3.3v-27.8c-18.4 5-37.3 8-56 11.8l-.5.4 1.6 3 1.5 3.1v70.8l-3.6 6.8 3.6-.7 54.1-7zm59-7.4-1-2.6-.5-20.3h-.4l-1.8 1c-7.3 2.4-15.1 2.9-22.7 4.1v-60.6l3-7.4h-2l-24.3 3.9h-3v1.2l1.4.8 2.8 5.3v73.9c-1.2 2.3-2.2 4.8-3.5 7 17.3-2.3 34.6-4.4 52-6.3zm36-3c7.8-1.1 9-1.7 14.8-6.1 4.4-7.1 4.5-11 5.5-19l-.5-18.8-3.4-7.4-5.9-3.8c-8.2-1.5-16.7-1.3-25-1.7l-1.8-2.5v-6.2l2-3.8 7.3-2.2h14.7c5.7 2.1 7.8 3.2 11.8 9.6v-14.1c-1.8-11.6-2-12-11.1-16.7h-16c-6.9.7-13.2 2.9-19.6 5-8.7 6.8-9.4 10.4-11 21.2l.5 20c1.6 4.1 2.3 5.5 5.4 8.2 5.3 2 10.8 2 16.3 2.4 4.8 0 9.3.6 13.8 2l1.2 4.7c-.8 5.2-.2 4.5-4 7.4-7.4 1.7-12.6 1.2-20 .6-6.6-1.7-6.9-2.7-11.5-7.5 1.6 9.8 1.5 11.9 3.6 23.7l5 4.9c4.4 1.7 9.1 1.3 13.9 1.4zM300 301l11.6-11.7 6.6-10a23.8 23.8 0 0 1-6.4-16.3l-2.9 5.4a70 70 0 0 1-12.4 18.1 19 19 0 0 1-11 6.7c-1.4.4-5 1-7.6-4.2-2.5-3.6-2.1-11.3-1-18.3.7-9.7 5.4-20.3 7-24a59.1 59.1 0 0 1 12-18c1.6-2.1 6.2-5.8 10.6-5.8 2.2-.4 3.8 1.4 5.3 2.6v3c-1.4 1.2-2.6 2-4.5 2-1.3-.1-2.2.3-3.4.7-3.5 1.2-4.9 5.5-4.9 8.9 0 .4-.6 5.4 3.1 8.7 1.2 1.4 2.5 1.3 4.2 1.5 4.4 1 7.5-.5 10.6-3.4 2-1.4 7.4-6 7.4-17.3.7-5.6-1.5-10.2-6-13.6-2.9-2.9-7-3.4-11-3.4-4.7-.4-9.1 1.3-13.3 3.4-8 2.7-18 16.9-21.4 21.8a97.8 97.8 0 0 0-10 27.3 70.8 70.8 0 0 0-.6 20.4 42 42 0 0 0 5 13.6c4.5 4.7 6 5.2 11.9 7.2l11-.4zm47.1-13.5c5.9-5.2 8.3-9.5 12-16.2 2.8-6.1 3-12 3.5-18.6 2.8-1 5.8-1.7 8.5-2.9l-3 11.8c-1.2 8.3-1.8 13 2 20.4 3 1.8 5.7 1.9 9 1.9 7.2-2.2 9.8-6.4 13.7-12.2h.7c3.3 7.3 5.6 7.7 12.8 7.6 5.9-1.9 9.5-6 12.7-11 2.1 6.1 4.4 6.7 10.7 6.6 9.4-4.2 11.9-10.4 13-19.6-3 3.4-6.6 5.4-10.5 7.4l-.8-2 .9-6.6c4.7-18.2 9.2-30.6 15.4-57.9 1.3-3.4 3.5-6.3 5.6-9.2v-.9c-8.3.5-16.4 2.5-24.5 4l-1.1.8 2.4 3.4c2 4 1.5 8.3 1.5 12.7l-3.4 15-.5.7-4.7-2.4c-6.7-.5-7.4.4-13.1 3.3a49.2 49.2 0 0 0-13.6 19 43.6 43.6 0 0 0-3.8 17.5v3.9c-3.5 3.2-7 7.4-12.2 7.7-1.1-12.3 6.4-24.6 15.5-65.2 1-3 2.8-5.5 4.6-8l-.7-.8a148 148 0 0 0-22.6 4.6l3.4 6.1c.3 8.3-2 15.9-4 23.8l-2.7 8a36.7 36.7 0 0 1-11.7 4.6l-2.3-6.4c-4.2-4.7-4.5-4.5-10.3-6-6.9.8-9 2.9-14.7 6.7-6 6-8.3 11.9-12 19.4-2.6 8.1-2 13.5-1.6 21.9l2.9 6.3c1.7 2.6 3.9 3.6 6.6 4.9 8.6.2 9.4-.3 16.4-4.1zm-13.2-10.8c-.6-7.9 1-12.7 3-20 2.8-6.4 4.1-8.4 9-12.7l1.5.5 2.2 4.4c.8 7.9-.6 12.8-2.5 20.3a23.2 23.2 0 0 1-7.8 10.2h-3zm71.2-12.3.8-10.4c1-5.7 3.4-10.8 5.9-16 3.3-4.7 4-5.2 9-7.5l4.4-.7-.7 3-5.1 21.1v2.9c-3.1 4.9-6 7.1-10.4 10.4h-2.4zm-255.6-1.5c-20.5 1.2-45-11-49.6-41.3-2.2-26.5 1-31.3 15.3-44.9 23.3-15.7 51.5-12.4 59.1-11.1 18-11.6 39.6-14.1 60.4-16.7 5.9-.8 11.2-3 16.6-5.2 5.3-2.5 8.7-6.6 12.6-10.7 3-4.8 3.5-9.7 4.4-15v-6l1.8-2.4c3.3-1.8 6-2 9.4-1 4.7 3.8 5.2 4.7 7.3 10l.9 6.2c2.7-3.5 4.2-7.3 5.7-11.4.6-7.9 0-11-2.6-18a26.2 26.2 0 0 1-4-19c-3 4-3.1 6.1-3.1 11-3-1.3-5.4-2.4-8.5-1.5 1.9.2 2.6.8 3.9 2.2.6 7 .2 7.2-6 10.5-10.3.3-17.3.4-26.3 5.5 2.2-.6 4.3.3 6.4 1 2.4 3.5 1.5 5.1 1 9.2-1 3.2-3 5-5.4 7.2-5.6 2.7-7.1 1.9-13.2 1.3a21.4 21.4 0 0 1-10.8-7.8c-3.6-5.6-2.8-7.2-2.9-13.8 2.3-6 4-7 8.6-11 7.2-3.1 15-2.9 22.8-3.5 6.8-1 9.1-2.6 14.7-6.2 3.9-3 6.4-7.1 9.7-10.7 3-5.8 4-12 5.3-18.3.7-9.2.2-14-2.5-22.4-2.2-5.9-6-10.2-10-14.9C267 10.7 254 0 248.3 0l9.5 11.9c4.6 7.2 5.3 11 6.6 19 0 9-3 14.7-6.7 22.4a42.8 42.8 0 0 1-24.3 15.3l-10 3.3h-1.7l5.4-2.5c5.1-2.7 8.5-6.3 12.3-10.5 3.3-5.7 3.3-8.6 3.9-15-1-6.6-2.9-9.5-6.2-15l-4.8-4.7-.9.8 3 6.8c.1 6.8 2 9-1.5 14.4l-7.4 5c-4.4 1.6-9.1 2-13.8 2.7-8.4-.3-15.5 4.5-22.1 9a33.8 33.8 0 0 0-6.1 10.6c-2.8 7-2 11.9-.2 18.6l3 10.6c2.1 6.6 1 10.2-.8 16.6l-4.2 7.6c-.8-13.5 2.4-6.8.2-24.5l-.6 3.8c-.4 3.8-1.6 7.1-3 10.5-2.4 2.2-4.7 4-7.6 5.3-5 2.4-7.6 2.4-12.7.6-4.1-.9-6.7-3.7-9.8-6.4l-3.4-7.3.5-10.5 3.7-6.3 4.6-4.5 10-4.4 5.7-5 3-6 1.6-7.8a26 26 0 0 0-3.3-10.2c-1.8-3.8-5.1-6.4-8.1-9.3l-4.8-3.4-.7.8 2.9 3.7c2 2.2 3.3 4.6 4.5 7.3 1.5 2.3 1.7 4.2 1.7 6.9.4 2.4-.6 4.5-1.5 6.6l-7.8 3.7-8.3 2.1c-5 1.3-9 2.5-13.6 4.9-3.5 1.2-6 3.4-8.6 5.9a19.6 19.6 0 0 0-5.7 6.9A30 30 0 0 0 117 97c-1.2 2.5-1.4 5-1.6 7.6-.6 2.7-.2 5 .4 7.7.5 3.5 2 6.7 3.3 10a20 20 0 0 1 2.5 9.6c.3 2.1-.2 3.4-1.2 5.2l-1 2-4.5 3.4-4.7 1.4-5.8-.9-5.3-3.8-3.7-6-1.5-7.1 1.5-9 3.7-8h-.7l-4 2.8c-2.2 2-3.6 4.7-5.2 7l-3.9 5.9-1.8 4.5v14l2.7 6.6 7.2 13.3 2.7 8.4.7 11.2-2.9 12-2.3 4.6-4.7 4.1-3.2 1.2H79l-4-2.5-2.9-5.5v-11l2.8-11.5 2.5-8.2v-2l-3.1 3-6.7 10.4-4 6.4-1.7 4.5-1 2.6-.8 3.8-1.3 9a67 67 0 0 0 2.7 16.7c1.3 5.3 3.5 10 6.1 14.8 2.1 4.3 5.1 8.1 8 12a70 70 0 0 0 8.9 8.3c5 4.7 11.3 7.2 17.6 9.7 7 2.2 14.1 1.6 21.4 1.5l13.1-.3c7-1.6 7.7-1.9 12.8-3.7zm83.9-2.5c1.7-.6 2.9-1.7 4.2-2.8 2.4-1.5 3.2-3.7 4.4-6.1 2.2-3.2 2.2-6.2 2.4-9.8a21 21 0 0 0-.7-9.8c-.4-2.6-1.3-4.6-2.6-6.8-.8-2-2.2-3.2-3.6-4.6-1.4-1.7-3.2-2.5-5-3.5-2.5-1.8-4.8-1.5-7.7-1.5a11 11 0 0 0-7.4 1.4c-2.1.8-3.4 2.3-5 3.8-2.2 1.8-3 4-4 6.6-1.6 2.9-1.7 5.7-2 9-.8 3.6 0 6.7 1 10.3.4 3 1.4 5.4 2.9 8 .7 1.6 1.7 2.8 3 4l1.4 1.2-2-2.8c-1.9-2-2.5-4.3-3.2-6.8-1-2.5-1.4-5.1-1.7-7.8-.7-3-.1-5.2.6-8 .4-2.7 1.5-4.9 2.7-7.2 1-2.5 2.7-4 4.6-5.7 1.5-1.6 3.2-2.7 5.2-3.6-1.4 1-2.4 2.2-3.5 3.4-2 1.6-2.7 3.6-3.5 5.9-1.4 2.7-1.7 5.5-2.1 8.4-1 3-.5 5.6 0 8.6.3 2.4 1.1 4.5 2 6.7.7 2.2 2.2 3.7 3.7 5.4 1.5 2.2 3.3 3.1 5.7 4.3 2 1.3 3.4 1.5 5.7 1.1 1.7 0 3-.6 4.5-1.3zm-8.6-4c-1-.4-1.9-1-2.7-1.6-1.9-1-2.6-2.5-3.6-4.2-1.5-1.9-2-3.8-2.6-6-.8-2-.7-4-.7-6.2-.3-2.2.3-4.2 1-6.3a12 12 0 0 1 2.7-5.8c1.2-2.3 2.5-2.9 4.8-3.8 2-1 3.2-1 5.3-.6 2.3 0 3.4 1.4 5 3 2.2 1.5 3.2 3.2 4.2 5.4 1.6 2.3 1.5 4.8 1.7 7.5.7 3 .2 5.5-.7 8.4-.3 2.8-1.5 4.2-3.3 6.2a9.8 9.8 0 0 1-4.4 3.5 6 6 0 0 1-4 1 5 5 0 0 1-2.7-.5zm2.3-9.7c1.7-.8 2.3-1.7 3-3.2 1.1-1.4 1-2.6 1-4.3.3-1.8-.2-3-1-4.5a5.4 5.4 0 0 0-2.4-3.2c-1-.9-1.6-1-2.9-1-1.5-.1-2 .5-3 1.5l-1.5 1.4v2.2l4.3.8 1.8 2v5.5l-1.8 2-4 .1c1.3.6 2.4 1.8 3.8 1.9 1 .1 1.9-.7 2.7-1.2zm-42 1.8-.8-6-.8-.8-10.3-1.1c-18.6-2-37.1-4-55.7-6.2l-4.2-1.2 3.4 9a548 548 0 0 0 65 9.6zm68-26.8a47.5 47.5 0 0 0-3.8-24.8c-19-6.4-38-12.3-57.5-17-20-4.1-41.4-6-61.2-.7a43 43 0 0 0-18.5 12.4v1.7l5.4-2.4 9.6-2 12.2-1.3 24.3-.6c5 0 9.8.2 14.7.3 3.7 0 9.7-.3 9.7-.3l5-1-2.2 2.3v5l4.2 1.4c6.2.5 12.4 1.3 18.6 2.1l-5.2 1h-17.6v2.5c1.6 3.3 2.2 6.9 3 10.4l1 11.3c1.6-5.5 4.9-10 8.3-14.3-4 6-5.2 13.3-5.9 18.7a93.7 93.7 0 0 1 9-15c2.8-2.4 6-3.8 9.3-5.3 6.8-1.2 10.7-.4 17.3.8 7 2.6 8.7 5.1 13.7 10.4 3.2 5.2 4.3 10.9 5.8 16.7v4c2.2-4.8.7-10.9.7-16.3zm-57.8 12.5v-1c-6.2-1.5-12.5-2.4-18.9-3.3-23.1-2.3-46.2-4.7-69.4-6v2.9c3.4 1.3 29.3 4.4 75.2 9.4 6 .6 7.7 0 13.1-2zM178 222.5l2-7-.8-5.9-3.3-6.7-4.4-2.7h-6.2l-2.8 1.5-2.5 5.3v6.7l4.2 8 4.2 2.5 4 .9 3.3-.6zm-11.4-5.4-1.5-5v-4.2l2.2-3.7h2.8l3.9 3.2 1.4 4.4.1 5.2-2 3.2h-3.2zm189.3 5.7c.4-4.6 2-8.8 3.4-13.2 4-10.8 8.8-14.5 16.8-22.5 6.3-4 9.9-4.8 17-6.1 5.2.3 9.4 2.4 14 4.7 5.3 4.4 6.6 7.2 9.6 13l1.6 7a59 59 0 0 0-.3-17.3c-.8-4.5-3-7.9-5.6-11.6-4.1-5-8.8-6.7-14.5-9.5a56 56 0 0 0-24.4 2.2c-10 4.1-19 10-28.2 15.8-7.5 4.8-15.8 7.9-24 11.2-6.4 2.7-20.4 3.2-25.3 7.2a39 39 0 0 1 19.8-.6s8.5.7 14.9 9.5c2.2 2.3 4.7 8 4.7 11.1v1.6c3 0 6-2.7 20.5-2.5zm-169.4 1 .9-1 .4-3.7.4-3.7-.6-4.7-.7-4.6-1.4-4.4-1.5-4.3-3.2-.9-3.2-.8-15-.4-15-.3-11.2.8-11.3.8-8 .8-7.9 1-.7.7-.7.7 3.9-.4 3.8-.4 10.8-.7 10.8-.6 17.7-.1 17.7-.1 2.4 1 2.4 1.2 1.5 2.4 1.6 2.4 1.4 4.5 1.3 4.5.4 5.6.4 5.6h1.6zm-29.5-5.2a744.3 744.3 0 0 0-33.3-1.6l-2.3 3.4c12.8.7 25.6 1.6 38.4 2.6a23 23 0 0 1-2.8-4.4zm-34-3.6v-4c11.2.5 22.4.8 33.7 1.1v-3.7a759 759 0 0 1-33.8-.7c-.4-1.2-1.2-2.3-1.2-3.6 11.8-.1 23.6 0 35.4.1.6-1.3 1.4-2.5 2.3-3.7-15.2.4-30.3.3-45.5.3l-2.6 1.4-1.8 4.4v5.2l1.8 4.2 4.2 3.5 4.5-.4 3-4.3zm-8.2-.1-1.5-3V206l1.6-1.9 2.5.4 2.7 3.6v5.8l-2.5 1.8c-1.2.2-1.8-.3-2.8-1zm147.4-6c5.6 1.2 10.9 3.2 16.2 5.2l7.2-3.7v-.7c-8-3.2-16.3-5.4-34.5-12.2a60.5 60.5 0 0 1 6 21.8c-.2-4.8 2-7 5.1-10.4zm-18.7-29.6c3.8 1 7 2.2 10.5 3.6 1.6.7 2.4 1.7 3.4 3l3.1 6.7-1.6-5.2c-.6-1.9-1.7-3.4-2.9-5l-7.2-4-12.2-4.8-9-2.2-14-2.5-14.8-.8-13.3 1.6-8.4 2.6-1.3 1.3 3.2-.9 21.8-.7 14.7 1.5 6.4 1.3c3.8.7 7.5 1.6 11.2 2.6 2.5.7 5 1.2 7.5 1.7l2.3 9.4c.6 1.8 1.7 2.6 3.3 3.4l-2.7-12.6zm77 4.4c7-2.1 13.4-5.7 19.8-9.1l10.8-7 14.2-12 9-10 7.3-9.5 6.9-11.8L399 105l5.4-7.7 6.5-6.1 8-5.2 9.7-3 8.3-.9 10.8 2 9.2 4.5 6.6 5.9c-.3-3-3-5.7-4.6-8.1l-6.6-7-7.1-4.8-8.6-3.9-10.8-2.6H416l-6.7 1.4-5.8 1.8-6.6 3.3-10.2 9.5-6 10.3-3.9 9.5a146 146 0 0 1-5.8 13.6c-1.6 4-4.1 7.4-6.5 10.9-3 5.9-7.8 10.2-12.5 14.8a67 67 0 0 1-15.4 13 92.8 92.8 0 0 1-27.3 13.2c-7.3 3.1-15 4.4-22.8 5.9-8.9 1.2-17.8 1.2-26.7 1.3v.6l4.7 8.9 5.1 10.8c5.3-.2 15.6-2.2 15.6-2.2 12.6-3.6 21.7-6.7 35-11.1zm-96.7-19.2 26.8 7zm61.1 0c3.6-.7 6.7-2.4 10-4 4.5-1.7 7.2-4.9 10.5-8.2 3.2-2.6 5.5-5.6 7.6-9 1.6-2.3 2.5-4.9 3.4-7.5 1.8-3.4 1.5-7.1 1.7-11a42 42 0 0 0-.8-13.7c-.4-4.6-1.8-8.8-3.2-13a107 107 0 0 0-3.5-9.9l-1.3-3.4h1l6.9 8.6 4.9 8.4 3.1 9.7 1.4 7.6v10.4l-1.4 8-3 10-3.9 6 7.2-2.5 8.4-4.7 6.7-4.8 4.8-4.4 7-7.6 4.7-6.5 5.2-9.6 3.8-12.2 3.4-17 3.3-9.3 2.6-4.5 5.1-6.3-1.5.9c-2.6 1.2-4.4 3.6-6.4 5.7a41.3 41.3 0 0 0-8.3 10.3c-2.3 3.2-4.3 6.6-6.4 10-1.6 3-3.6 5.6-5.7 8.4-1.8 2.7-4 5-6.1 7.4-2 2.5-4.5 4.5-7 6.5l-3.6 3h-1l.2-8.8.3-8.9-2-9.9-2.1-10-1.7-10.2V61l1.8-9.8 4.7-9.8L346 31a76 76 0 0 1 17.3-7.3l9.6-1.3 9.6.6-5.8-2-10.7-1.8h-17.5l-9 2c-4.8.8-9.4 2.9-13.9 5-3 1-5.6 2.8-8.2 4.6a32 32 0 0 0-10.5 11.9 40.2 40.2 0 0 0-4.7 12.5c-1.3 3.6-.7 7.2-.6 11-.4 6.4 1.4 10 3.5 15.9 2 4.2 3.2 8.5 4 13 1.2 3.8.7 7.5.5 11.3 0 3.4-.3 6.5-1.4 9.7-.7 2.3-1.7 4.3-2.7 6.4-1 3.2-3.2 5-5.5 7.2-2.5 3-5.7 5-9 7.2a66 66 0 0 1-10.3 6c-3.6 2-7.4 3.4-11.2 4.8-4.6 2-9.4 3.3-14.1 4.6l-20 6.4-11.7 5.6 26.8 7 16.6-2c6.2-.8 12-2.9 17.7-5zm107-10.6c9.8-.5 15.7-5.3 17.7-7.1 4.7-3.7 7-9.8 9.2-15.2 1.5-8 1.7-16.1 4.4-23.7.9-3.2 3.2-5.7 5.2-8.3h-1L422 105c-3.2 4-5.5 8.4-7.7 13-5 9.3-10.7 14.3-18.3 21.4a241.2 241.2 0 0 0-21.8 17.4c4.8-1.3 10.4-2 17.6-3zM342.5 94l3.3-8.3 3-6.6 5.8-9 8.2-8.8 10.2-7.4 15.2-7.6 11-2.7 17-.8-3-1.6-9.6-2.6-15.2-2.6h-10l-11 1.9-7.3 2.7-7.7 4.6L345 52l-4.4 8.6-1.4 6.8V78l1.8 12.8v5.6l1.4-.8V94z"/>
  <style>
      path { fill: #000; }
      @media (prefers-color-scheme: dark) {
          path { fill: #FFF; }
      }
  </style>
</svg>