<svg width="1889.8" height="1882.5" viewBox="0 0 500 498.1" xml:space="preserve" xmlns="http://www.w3.org/2000/svg">
  <path d="M250 0A250 249 0 0 0 0 249a250 249 0 0 0 250 249 250 249 0 0 0 250-249A250 249 0 0 0 250 0Zm4 13c26 0 44 3 68 11a239 239 0 0 1 153 154 230 230 0 0 1-40 217l-1-58v-58l-9-11-9-12 7-1h8v-26h-27l-4 4-4 4-17-27c-25-39-23-37-31-41l-7-3h-91c-89 0-91 0-96 2l-7 5-21 31-19 31-2 3-4-5-4-4H69v26h16l-9 13-10 12v57l-1 57a230 230 0 0 1-41-212C50 96 119 33 204 15a172 172 0 0 1 50-3zm-70 171c46 0 133 1 129 2l-19 2a4942 4942 0 0 0-111 11c-6 4-11 10-19 23l-8 14h-13l-12-1 21-36 10-15zm-73 67h278l12 16c16 22 16 22 7 17-8-3-20-7-31-8l-133-1H120l-11 3a158 158 0 0 0-24 9c-1 0 0-2 13-19zm272 40c8 1 15 7 18 15 2 8-1 18-9 22-7 4-18 3-24-2-4-3-7-10-7-15 0-6 3-13 8-16 4-3 9-4 14-4zm-265 0c23 0 29 31 8 39-10 3-21-1-26-10-4-8-3-16 3-22 5-5 9-7 15-7zm58 11c3-1 6 0 9 3 4 4 4 12 0 16-6 6-19 1-19-8 0-6 5-10 10-11zm147 0c4 0 7 2 9 6 2 5 1 10-3 13-7 6-18 1-18-8 0-8 6-12 12-11zM88 345h324v9H88v-5zm255 20v12h-30v-6l1-5h14zm-229 0h14v13h-6c-7 0-11-2-16-6-8-6-6-7 8-7zm53 1h20v10h-16l-16 1v-10l5-1h7zm215 0h14c3 1 3 1 1 3l-7 5c-3 1-7 3-12 3-8 1-8 1-8-7l1-4zm-93 0v8h-78c-1-2 0-8 1-8h39zm-133 37h188v28h53l-3 3c-9 7-29 20-44 27-23 11-43 17-71 21a248 248 0 0 1-171-47l-4-4h52v-14z"/>
  <style>
      path { fill: #000; }
      @media (prefers-color-scheme: dark) {
          path { fill: #FFF; }
      }
  </style>
</svg>
